<?xml version="1.0" encoding="utf-8"?>
<!-- Generator: Adobe Illustrator 15.0.0, SVG Export Plug-In . SVG Version: 6.00 Build 0)  -->
<!DOCTYPE svg PUBLIC "-//W3C//DTD SVG 1.1//EN" "http://www.w3.org/Graphics/SVG/1.1/DTD/svg11.dtd">
<svg version="1.1" id="Calque_1" xmlns="http://www.w3.org/2000/svg" xmlns:xlink="http://www.w3.org/1999/xlink" x="0px" y="0px"
	 width="700px" height="200px" viewBox="0 0 700 200" enable-background="new 0 0 700 200" xml:space="preserve">
<path fill="#FFFFFF" stroke="#FFFFFF" stroke-width="3" stroke-miterlimit="10" d="M59.5,85.909c0,0,77.574,73.174,92.33,19.243
	C163.5,62.5,58,110.5,121,151.5s77.249-81.344,64.749-69.344c-1.804,1.731,5.004,24.346,33.504,35.346
	c25.365,9.79-13.25,67.888-20.753,35.998c-4-17,25,18,44-7s13-137,13-137s-17.886,123.493,11.5,141c23.5,14,107-26.5,78-62
	s-54.5,91,11,67s51.5-169,32.5-145.5s-11,197.367,31.5,150.184S460-29,436.5,13.5S437.248,187.891,491,150
	c61-43,29.241-104.086,5-61.5c-18.5,32.5,25.5,114,73.5,59s50-95.5,50-95.5"/>
<line fill="#FFFFFF" stroke="#FFFFFF" stroke-width="3" stroke-miterlimit="10" x1="206.5" y1="45.5" x2="312" y2="29.5"/>
</svg>
