<?xml version="1.0" encoding="utf-8"?>
<!-- Generator: Adobe Illustrator 15.0.0, SVG Export Plug-In . SVG Version: 6.00 Build 0)  -->
<!DOCTYPE svg PUBLIC "-//W3C//DTD SVG 1.1//EN" "http://www.w3.org/Graphics/SVG/1.1/DTD/svg11.dtd">
<svg version="1.1" id="Calque_1" xmlns="http://www.w3.org/2000/svg" xmlns:xlink="http://www.w3.org/1999/xlink" x="0px" y="0px"
	 width="700px" height="200px" viewBox="0 0 700 200" enable-background="new 0 0 700 200" xml:space="preserve">
<path fill="none" stroke="#FFFFFF" stroke-width="3" stroke-miterlimit="10" d="M63.5,85.909c0,0,77.574,73.174,92.33,19.243
	C167.5,62.5,62,110.5,125,151.5s77.249-81.344,64.749-69.344c-1.804,1.731,5.004,24.346,33.504,35.346
	c25.365,9.79-13.25,67.888-20.753,35.998c-4-17,31.5,19,50.5-6s13-144,13-144s-16.621,131.998,12.765,149.505
	C302.265,167.005,378,124,349,88.5s-54.5,91,11,67s51.5-169,32.5-145.5s-11,197.367,31.5,150.184S464-29,440.5,13.5
	S441.248,187.891,495,150c61-43,29.241-104.086,5-61.5c-18.5,32.5,25.5,114,73.5,59s50-95.5,50-95.5"/>
<path fill="none" stroke="#FFFFFF" stroke-width="3" stroke-miterlimit="10" d="M202.451,37.105c0,0,74.5,27,134.5-2.5"/>
</svg>
